<svg width="41" height="36" viewBox="0 0 41 36" fill="none" xmlns="http://www.w3.org/2000/svg">
<g clip-path="url(#clip0_419_15)">
<path d="M34.8557 6.56736C32.3033 5.56111 29.5674 4.81736 26.7063 4.39444C26.6808 4.39016 26.6545 4.39292 26.6308 4.40232C26.6072 4.41173 26.5876 4.42732 26.5745 4.44694C26.2242 4.98506 25.8338 5.68652 25.5602 6.24069C22.5258 5.84437 19.4409 5.84437 16.4065 6.24069C16.1018 5.62653 15.7582 5.02768 15.3772 4.44694C15.3643 4.42708 15.3448 4.41114 15.3212 4.40124C15.2977 4.39133 15.2712 4.38795 15.2454 4.39152C12.386 4.81444 9.65012 5.55819 7.09602 6.5659C7.07405 6.57395 7.05542 6.58769 7.04264 6.60527C1.85104 13.2771 0.428021 19.7842 1.12702 26.2096C1.12896 26.2254 1.13455 26.2406 1.14344 26.2544C1.15233 26.2682 1.16434 26.2803 1.17873 26.2899C4.20893 28.2184 7.58872 29.6875 11.1766 30.6357C11.2016 30.6424 11.2283 30.6424 11.2533 30.6356C11.2783 30.6289 11.3004 30.6157 11.3167 30.5978C12.0888 29.6952 12.7729 28.7376 13.362 27.7351C13.3702 27.7214 13.3749 27.7063 13.3758 27.6908C13.3767 27.6754 13.3738 27.66 13.3674 27.6456C13.3609 27.6312 13.3509 27.6182 13.3382 27.6075C13.3255 27.5968 13.3103 27.5885 13.2936 27.5834C12.2159 27.2286 11.1717 26.8005 10.1706 26.303C10.1526 26.294 10.1375 26.2813 10.1265 26.2659C10.1155 26.2505 10.1091 26.233 10.1078 26.215C10.1064 26.1969 10.1103 26.1788 10.1189 26.1624C10.1276 26.1459 10.1407 26.1316 10.1573 26.1207C10.3675 25.9851 10.5777 25.8436 10.7779 25.7021C10.7959 25.6894 10.8176 25.6813 10.8406 25.6788C10.8635 25.6762 10.8869 25.6792 10.908 25.6876C17.4592 28.2601 24.5543 28.2601 31.0288 25.6876C31.0499 25.6787 31.0735 25.6753 31.0968 25.6776C31.1201 25.6799 31.1422 25.6879 31.1605 25.7007C31.3607 25.8436 31.5693 25.9851 31.7811 26.1207C31.7978 26.1314 31.8112 26.1455 31.8201 26.1618C31.8291 26.1781 31.8332 26.1961 31.8322 26.2142C31.8312 26.2322 31.8251 26.2498 31.8145 26.2653C31.8038 26.2808 31.7889 26.2937 31.7711 26.303C30.7735 26.8046 29.7359 27.229 28.6465 27.5819C28.6298 27.5872 28.6145 27.5956 28.6018 27.6065C28.5891 27.6174 28.5791 27.6305 28.5726 27.645C28.5662 27.6595 28.5633 27.675 28.5642 27.6905C28.5652 27.7061 28.5699 27.7212 28.5781 27.7351C29.1787 28.7369 29.866 29.6907 30.6217 30.5963C30.6374 30.6149 30.6593 30.6288 30.6844 30.6361C30.7095 30.6434 30.7365 30.6438 30.7618 30.6371C34.3558 29.6916 37.7411 28.2218 40.7747 26.2899C40.7895 26.2808 40.8019 26.2691 40.8111 26.2555C40.8203 26.2419 40.8261 26.2268 40.8281 26.2111C41.6622 18.7824 39.4301 12.3278 34.9074 6.60819C34.8964 6.5896 34.878 6.57511 34.8557 6.56736ZM14.3412 22.2969C12.3694 22.2969 10.7428 20.738 10.7428 18.8261C10.7428 16.9128 12.3377 15.3553 14.3412 15.3553C16.3598 15.3553 17.9714 16.9259 17.9397 18.8261C17.9397 20.7394 16.3448 22.2969 14.3412 22.2969ZM27.6455 22.2969C25.672 22.2969 24.0471 20.738 24.0471 18.8261C24.0471 16.9128 25.6403 15.3553 27.6455 15.3553C29.6641 15.3553 31.2757 16.9259 31.244 18.8261C31.244 20.7394 29.6658 22.2969 27.6455 22.2969Z" fill="#FF5858"/>
</g>
<defs>
<clipPath id="clip0_419_15">
<rect width="40.038" height="35" fill="white" transform="translate(0.961975 0.0166016)"/>
</clipPath>
</defs>
</svg>
