<svg width="38" height="36" viewBox="0 0 38 36" fill="none" xmlns="http://www.w3.org/2000/svg">
<g clip-path="url(#clip0_419_11)">
<path fill-rule="evenodd" clip-rule="evenodd" d="M19.3318 0C9.19296 0 0.980988 7.8387 0.980988 17.5166C0.980988 25.2678 6.23389 31.8146 13.5283 34.1356C14.4459 34.2888 14.7899 33.7633 14.7899 33.3035C14.7899 32.8875 14.767 31.5081 14.767 30.041C10.1564 30.8512 8.96357 28.9681 8.59656 27.9828C8.39011 27.4792 7.49551 25.9246 6.7156 25.5086C6.07333 25.1802 5.15579 24.37 6.69266 24.3481C8.13779 24.3262 9.17002 25.6181 9.51409 26.1436C11.1657 28.793 13.8036 28.0485 14.8588 27.5887C15.0193 26.4501 15.501 25.6838 16.0286 25.2459C11.9456 24.8079 7.67902 23.2971 7.67902 16.597C7.67902 14.6921 8.39011 13.1156 9.55997 11.8894C9.37646 11.4515 8.73419 9.65605 9.74348 7.24751C9.74348 7.24751 11.2804 6.7877 14.7899 9.04296C16.258 8.64884 17.8178 8.45178 19.3776 8.45178C20.9374 8.45178 22.4973 8.64884 23.9653 9.04296C27.4749 6.7658 29.0118 7.24751 29.0118 7.24751C30.0211 9.65605 29.3788 11.4515 29.1953 11.8894C30.3652 13.1156 31.0762 14.6702 31.0762 16.597C31.0762 23.319 26.7868 24.8079 22.7037 25.2459C23.3689 25.7933 23.9424 26.8442 23.9424 28.4864C23.9424 30.8293 23.9194 32.7123 23.9194 33.3035C23.9194 33.7633 24.2635 34.3107 25.1811 34.1356C28.824 32.9615 31.9895 30.7266 34.2321 27.7454C36.4747 24.7642 37.6814 21.1868 37.6825 17.5166C37.6825 7.8387 29.4706 0 19.3318 0Z" fill="#FF5858"/>
</g>
<defs>
<clipPath id="clip0_419_11">
<rect width="36.7015" height="35.0333" fill="white" transform="translate(0.980988)"/>
</clipPath>
</defs>
</svg>
