<svg width="40" height="36" viewBox="0 0 40 36" fill="none" xmlns="http://www.w3.org/2000/svg">
<path fill-rule="evenodd" clip-rule="evenodd" d="M12.3618 1.5711C14.2915 1.49235 14.9067 1.47485 19.8222 1.47485C24.7377 1.47485 25.353 1.49381 27.281 1.5711C29.2091 1.6484 30.5251 1.9211 31.6767 2.31631C32.8825 2.72027 33.9765 3.35173 34.8813 4.16839C35.8026 4.96902 36.5132 5.93735 36.9673 7.00777C37.4147 8.0286 37.7207 9.19527 37.8096 10.9015C37.8984 12.6151 37.9181 13.1605 37.9181 17.5165C37.9181 21.874 37.8968 22.4194 37.8096 24.1301C37.7224 25.8363 37.4147 27.003 36.9673 28.0238C36.5132 29.0944 35.8014 30.0643 34.8813 30.8661C33.9765 31.6828 32.8825 32.3128 31.6767 32.7153C30.5251 33.1119 29.2091 33.3832 27.2843 33.4619C25.353 33.5407 24.7377 33.5582 19.8222 33.5582C14.9067 33.5582 14.2915 33.5392 12.3618 33.4619C10.4371 33.3846 9.12099 33.1119 7.96943 32.7153C6.76181 32.3127 5.66767 31.6817 4.76317 30.8661C3.84255 30.065 3.13012 29.0955 2.67556 28.0253C2.22974 27.0044 1.92376 25.8378 1.83492 24.1315C1.74609 22.418 1.72635 21.8726 1.72635 17.5165C1.72635 13.159 1.74773 12.6136 1.83492 10.9044C1.92211 9.19527 2.22974 8.0286 2.67556 7.00777C3.13079 5.93747 3.84376 4.96802 4.76481 4.16694C5.66803 3.351 6.76107 2.71946 7.96779 2.31631C9.11934 1.9211 10.4354 1.64985 12.3602 1.5711H12.3618ZM27.1346 4.4586C25.2263 4.38131 24.6538 4.36527 19.8222 4.36527C14.9906 4.36527 14.4182 4.38131 12.5099 4.4586C10.7447 4.53006 9.78725 4.7911 9.14896 5.01131C8.30503 5.30298 7.70128 5.6486 7.06793 6.21006C6.46755 6.72785 6.0055 7.35818 5.71567 8.05485C5.46726 8.62069 5.17279 9.46944 5.09219 11.0342C5.005 12.7259 4.9869 13.2334 4.9869 17.5165C4.9869 21.7996 5.005 22.3071 5.09219 23.9988C5.17279 25.5636 5.46726 26.4124 5.71567 26.9782C6.00521 27.6738 6.46747 28.3053 7.06793 28.823C7.65193 29.3553 8.36425 29.7651 9.14896 30.0217C9.78725 30.2419 10.7447 30.503 12.5099 30.5744C14.4182 30.6517 14.989 30.6678 19.8222 30.6678C24.6555 30.6678 25.2263 30.6517 27.1346 30.5744C28.8998 30.503 29.8572 30.2419 30.4955 30.0217C31.3395 29.7301 31.9432 29.3844 32.5766 28.823C33.177 28.3053 33.6393 27.6738 33.9288 26.9782C34.1772 26.4124 34.4717 25.5636 34.5523 23.9988C34.6395 22.3071 34.6576 21.7996 34.6576 17.5165C34.6576 13.2334 34.6395 12.7259 34.5523 11.0342C34.4717 9.46944 34.1772 8.62069 33.9288 8.05485C33.5998 7.30673 33.2099 6.77152 32.5766 6.21006C31.9924 5.67787 31.2814 5.26829 30.4955 5.01131C29.8572 4.7911 28.8998 4.53006 27.1346 4.4586ZM17.5109 22.4617C18.8017 22.9381 20.2391 23.0024 21.5774 22.6436C22.9158 22.2849 24.0721 21.5254 24.849 20.4948C25.6258 19.4642 25.9749 18.2265 25.8367 16.9931C25.6985 15.7597 25.0816 14.6071 24.0912 13.7321C23.4599 13.1728 22.6965 12.7446 21.8561 12.4782C21.0157 12.2118 20.1191 12.1139 19.2308 12.1916C18.3426 12.2692 17.4848 12.5205 16.7193 12.9273C15.9538 13.3341 15.2995 13.8864 14.8036 14.5442C14.3077 15.2021 13.9825 15.9492 13.8514 16.7319C13.7204 17.5145 13.7867 18.3132 14.0456 19.0704C14.3045 19.8276 14.7496 20.5245 15.3488 21.1109C15.948 21.6973 16.6864 22.1587 17.5109 22.4617ZM13.2452 11.6861C14.1089 10.9204 15.1343 10.3131 16.2628 9.89871C17.3913 9.48434 18.6008 9.27107 19.8222 9.27107C21.0437 9.27107 22.2532 9.48434 23.3817 9.89871C24.5102 10.3131 25.5356 10.9204 26.3993 11.6861C27.263 12.4518 27.9481 13.3607 28.4156 14.3611C28.883 15.3615 29.1236 16.4337 29.1236 17.5165C29.1236 18.5993 28.883 19.6715 28.4156 20.6719C27.9481 21.6723 27.263 22.5813 26.3993 23.3469C24.6549 24.8933 22.2891 25.762 19.8222 25.762C17.3554 25.762 14.9895 24.8933 13.2452 23.3469C11.5009 21.8006 10.5209 19.7034 10.5209 17.5165C10.5209 15.3297 11.5009 13.2324 13.2452 11.6861ZM31.1865 10.499C31.4005 10.32 31.5718 10.1048 31.6904 9.86607C31.8089 9.62733 31.8722 9.36993 31.8764 9.10913C31.8807 8.84832 31.8259 8.5894 31.7153 8.3477C31.6047 8.106 31.4405 7.88643 31.2325 7.70199C31.0244 7.51756 30.7767 7.372 30.5041 7.27394C30.2314 7.17588 29.9393 7.12732 29.6451 7.13112C29.3509 7.13492 29.0606 7.19102 28.7913 7.29608C28.522 7.40114 28.2792 7.55303 28.0773 7.74277C27.6846 8.11177 27.4696 8.60191 27.478 9.10913C27.4863 9.61635 27.7173 10.1007 28.1219 10.4594C28.5266 10.8181 29.073 11.0229 29.6451 11.0303C30.2173 11.0377 30.7702 10.8471 31.1865 10.499Z" fill="#FF5858"/>
</svg>
