<svg width="38" height="36" viewBox="0 0 38 36" fill="none" xmlns="http://www.w3.org/2000/svg">
<path fill-rule="evenodd" clip-rule="evenodd" d="M1.5524 4.14269C1.5524 3.43112 1.85302 2.7487 2.38811 2.24554C2.92321 1.74239 3.64897 1.45972 4.40571 1.45972H32.8488C33.2238 1.45914 33.5953 1.52813 33.9419 1.66272C34.2885 1.79731 34.6035 1.99487 34.8689 2.24408C35.1342 2.49329 35.3446 2.78927 35.4881 3.11506C35.6317 3.44085 35.7054 3.79005 35.7052 4.14269V30.8877C35.7056 31.2404 35.6321 31.5897 35.4888 31.9156C35.3455 32.2416 35.1352 32.5378 34.87 32.7872C34.6049 33.0367 34.29 33.2345 33.9435 33.3695C33.5969 33.5044 33.2254 33.5738 32.8503 33.5736H4.40571C4.03088 33.5736 3.65972 33.5041 3.31344 33.3692C2.96716 33.2343 2.65254 33.0365 2.38757 32.7872C2.12259 32.5379 1.91245 32.242 1.76915 31.9163C1.62585 31.5906 1.5522 31.2416 1.5524 30.8891V4.14269ZM15.0707 13.7039H19.6953V15.8876C20.3628 14.6322 22.0705 13.5024 24.6366 13.5024C29.5562 13.5024 30.722 16.0029 30.722 20.5908V29.0893H25.7435V21.636C25.7435 19.0231 25.0759 17.5488 23.3807 17.5488C21.0288 17.5488 20.0508 19.1384 20.0508 21.636V29.0893H15.0707V13.7039ZM6.5325 28.8893H11.5126V13.5024H6.5325V28.8879V28.8893ZM12.2252 8.48389C12.2345 8.88484 12.1587 9.28351 12.002 9.65651C11.8453 10.0295 11.6109 10.3693 11.3127 10.656C11.0145 10.9427 10.6583 11.1705 10.2652 11.326C9.87204 11.4815 9.44983 11.5616 9.02333 11.5616C8.59682 11.5616 8.17461 11.4815 7.78148 11.326C7.38834 11.1705 7.0322 10.9427 6.73395 10.656C6.43571 10.3693 6.20136 10.0295 6.04467 9.65651C5.88799 9.28351 5.81211 8.88484 5.8215 8.48389C5.83993 7.69689 6.18536 6.94796 6.78381 6.39749C7.38226 5.84703 8.18615 5.53879 9.02333 5.53879C9.8605 5.53879 10.6644 5.84703 11.2628 6.39749C11.8613 6.94796 12.2067 7.69689 12.2252 8.48389Z" fill="#FF5858"/>
</svg>
