<svg width="40" height="36" viewBox="0 0 40 36" fill="none" xmlns="http://www.w3.org/2000/svg">
<g clip-path="url(#clip0_419_18)">
<path d="M39.0032 7.20658C37.6489 7.74668 36.1941 8.11161 34.6646 8.27656C36.2427 7.4267 37.4234 6.08912 37.9863 4.5134C36.5036 5.30601 34.8809 5.86392 33.1887 6.16288C32.0507 5.06935 30.5434 4.34455 28.9009 4.10099C27.2583 3.85743 25.5723 4.10875 24.1047 4.81593C22.6371 5.52311 21.47 6.64658 20.7846 8.01191C20.0991 9.37725 19.9337 10.9081 20.3139 12.3667C17.3097 12.2309 14.3707 11.5282 11.6877 10.304C9.00472 9.07978 6.63774 7.36155 4.74036 5.26078C4.09159 6.26798 3.71855 7.43576 3.71855 8.67944C3.71783 9.79904 4.02418 10.9015 4.61041 11.889C5.19664 12.8765 6.04464 13.7184 7.07915 14.3402C5.87939 14.3059 4.70609 14.0141 3.65692 13.4892V13.5768C3.6568 15.1471 4.26033 16.669 5.36509 17.8844C6.46986 19.0998 8.00781 19.9338 9.718 20.2448C8.60502 20.5159 7.43814 20.5558 6.3055 20.3616C6.78802 21.7127 7.72791 22.8942 8.99361 23.7407C10.2593 24.5872 11.7874 25.0563 13.3641 25.0823C10.6876 26.9733 7.38227 27.999 3.97968 27.9945C3.37695 27.9946 2.77473 27.9629 2.17612 27.8996C5.62994 29.8982 9.65044 30.9589 13.7566 30.9548C27.6563 30.9548 35.255 20.5937 35.255 11.6076C35.255 11.3157 35.2469 11.0208 35.2323 10.7289C36.7103 9.76689 37.9861 8.57565 39 7.21096L39.0032 7.20658Z" fill="#FF5858"/>
</g>
<defs>
<clipPath id="clip0_419_18">
<rect width="38.9259" height="35.0333" fill="white" transform="translate(0.656372)"/>
</clipPath>
</defs>
</svg>
