<svg width="66" height="434" viewBox="0 0 66 434" fill="none" xmlns="http://www.w3.org/2000/svg">
    <path d="M40.4189 431.555C24.1633 422.845 25.9629 406.334 31.5664 394.662C38.7446 379.713 51.4871 365.235 44.7001 348.637C41.7427 341.408 36.3322 334.776 32.255 327.826C28.0275 320.616 26.2166 313.251 27.0407 305.605C28.6104 291.04 37.3807 277.636 42.3792 263.668C44.6914 257.203 46.2987 250.512 45.7665 243.758C45.2065 236.619 41.922 230.045 37.2719 223.619C32.2592 216.682 26.169 209.864 24.0877 202.187C22.1726 195.125 23.9569 188.045 27.0287 181.406C33.0175 168.479 43.9626 156.571 46.161 142.781C47.2304 136.067 45.422 129.584 41.5363 123.287C37.1408 116.158 30.8545 109.439 28.5114 101.81C25.9173 93.3586 29.3541 85.066 33.4993 77.3262C37.5538 69.7571 42.199 62.3795 44.2651 54.3336C47.9876 39.8361 44.9684 24.4084 35.8453 10.7693C33.5582 7.34965 30.8615 4.06533 27.8369 0.920373C27.0983 0.157523 25.2926 0.77027 26.0375 1.54289C38.8358 14.8409 45.0332 30.8304 43.5715 46.4771C42.8094 54.6423 39.6335 62.2425 35.472 69.7683C31.3563 77.2016 26.6568 84.7043 25.7066 92.8124C24.8252 100.379 28.2751 107.322 33.0267 114.16C37.9055 121.181 43.51 128.154 44.3266 136.007C45.8144 150.3 34.6415 163.186 27.64 175.899C24.2526 182.044 21.4563 188.503 21.2536 195.215C21.0363 202.342 24.3372 208.997 28.9129 215.41C33.9409 222.448 39.9909 229.249 42.4183 236.963C44.6695 244.123 43.9569 251.462 41.9432 258.492C37.9558 272.436 29.4038 285.443 26.0447 299.51C24.4435 306.215 24.1608 313.155 26.4058 319.907C28.8743 327.353 34.2764 334.149 38.6099 341.156C43.6369 349.274 46.0321 357.346 43.6842 365.96C41.4275 374.261 36.2289 381.918 31.9374 389.717C25.8084 400.86 21.3869 415.151 31.1571 426.431C33.2822 428.89 36.0472 430.98 39.3143 432.73C40.3907 433.292 41.4747 432.121 40.4189 431.555Z" fill="#FF5858"/>
    <path d="M26.2034 2.28112C23.0701 7.46767 21.6707 13.1699 22.1273 18.8731C22.2033 19.7818 24.2448 19.8918 24.169 18.9784C23.7207 13.3798 25.0773 7.84591 28.1508 2.76049C28.6577 1.92923 26.7033 1.45423 26.2034 2.28112Z" fill="#FF5858"/>
    <path d="M28.6181 2.82719C36.2773 6.7416 44.9295 9.66035 54.0183 11.3889C55.2956 11.63 55.9104 10.2928 54.6331 10.0517C45.6996 8.35479 37.2415 5.50766 29.7085 1.66133C28.6318 1.10371 27.5409 2.27902 28.6181 2.82719Z" fill="#FF5858"/>
</svg>
