<svg width="25" height="25" viewBox="0 0 25 25" fill="none" xmlns="http://www.w3.org/2000/svg">
<g clip-path="url(#clip0_245_17)">
<path d="M12.5 7.63889C13.4615 7.63889 14.4013 7.92398 15.2007 8.45813C16.0001 8.99228 16.6232 9.75148 16.9911 10.6397C17.359 11.528 17.4553 12.5054 17.2677 13.4484C17.0802 14.3913 16.6172 15.2575 15.9374 15.9373C15.2575 16.6172 14.3913 17.0801 13.4484 17.2677C12.5054 17.4553 11.528 17.359 10.6398 16.9911C9.75151 16.6232 8.99231 16.0001 8.45816 15.2007C7.92401 14.4013 7.63892 13.4614 7.63892 12.5C7.63892 11.2107 8.15107 9.97431 9.0627 9.06267C9.97434 8.15104 11.2108 7.63889 12.5 7.63889Z" fill="#FF5858"/>
<path d="M12.5 23.6111C10.3025 23.6111 8.15424 22.9595 6.32703 21.7386C4.49982 20.5176 3.07568 18.7823 2.2347 16.752C1.39373 14.7217 1.17369 12.4877 1.60242 10.3323C2.03114 8.17699 3.08937 6.19718 4.64329 4.64326C6.19721 3.08934 8.17702 2.03111 10.3324 1.60239C12.4877 1.17366 14.7218 1.3937 16.7521 2.23467C18.7824 3.07565 20.5177 4.49979 21.7386 6.327C22.9595 8.15421 23.6111 10.3024 23.6111 12.5C23.6111 15.4469 22.4405 18.273 20.3568 20.3567C18.273 22.4405 15.4469 23.6111 12.5 23.6111ZM12.5 2.77778C10.5772 2.77778 8.69747 3.34798 7.09865 4.41627C5.49984 5.48456 4.25372 7.00296 3.51787 8.77947C2.78202 10.556 2.58949 12.5108 2.96462 14.3967C3.33975 16.2826 4.26571 18.015 5.62538 19.3746C6.98506 20.7343 8.71739 21.6603 10.6033 22.0354C12.4892 22.4105 14.4441 22.218 16.2206 21.4822C17.9971 20.7463 19.5155 19.5002 20.5838 17.9014C21.6521 16.3026 22.2223 14.4229 22.2223 12.5C22.2223 9.92151 21.198 7.44862 19.3747 5.62535C17.5514 3.80208 15.0785 2.77778 12.5 2.77778Z" fill="#FF5858"/>
</g>
<defs>
<clipPath id="clip0_245_17">
<rect width="25" height="25" fill="white"/>
</clipPath>
</defs>
</svg>
