<svg width="89" height="89" viewBox="0 0 42 89" fill="none" xmlns="http://www.w3.org/2000/svg">
<g clip-path="url(#clip0_560_378)">
<path d="M31.187 4.77995C30.9153 4.18163 30.6435 3.58305 30.3835 2.98249C29.8506 1.75369 28.8553 0.884818 27.2517 0.247982C27.0247 0.136517 26.7768 0.0763729 26.5251 0.0715979C26.2735 0.0668234 26.0238 0.117449 25.7929 0.220228C25.5929 0.336236 25.4199 0.495398 25.2858 0.686568C25.1517 0.877743 25.0596 1.09634 25.0161 1.32747C24.8297 2.09669 24.7357 2.88634 24.7358 3.6789C24.7077 5.59052 24.694 7.50249 24.6809 9.41412C24.6579 12.6207 24.635 15.9371 24.5378 19.1938C24.4002 23.8308 24.2213 28.5423 24.0485 33.1004C23.8692 37.8307 23.683 42.7227 23.5428 47.5351C23.3065 55.6393 23.1312 63.88 22.9618 71.85L22.822 78.3818C22.7792 80.3697 22.7806 82.4391 22.827 84.5325C22.7918 85.3014 22.9463 86.0672 23.276 86.759C23.4824 87.1098 24.2291 88.2713 25.183 88.4792C25.3044 88.5057 25.4281 88.5192 25.5522 88.5196C26.547 88.5196 27.2323 87.5985 27.4671 86.6472C27.6617 85.8144 27.7588 84.9607 27.7563 84.1043C27.7807 80.5817 27.7971 77.0591 27.8052 73.5365C27.8123 71.3721 27.8202 69.2077 27.8294 67.0429C27.8316 66.596 27.8604 66.1536 27.8933 65.641C27.9024 65.4989 27.9116 65.3526 27.9207 65.2012C28.8878 65.2012 29.845 65.206 30.7919 65.2158C33.2797 65.2322 35.6287 65.2487 38.023 65.175C40.7895 65.0898 41.8027 64.0285 41.8943 61.1184C41.8998 60.6525 41.8772 60.1862 41.8257 59.7232L41.7935 59.3545C41.7395 58.6904 41.6807 58.0273 41.6215 57.364C41.5119 56.1423 41.3998 54.8783 41.3264 53.6361L41.2475 52.2838C40.8823 45.9948 40.5014 39.4914 39.0927 33.2267C37.5486 26.3666 35.7362 19.118 33.3905 10.4158C32.8086 8.47838 32.0716 6.59327 31.187 4.77995ZM37.3225 60.2321H28.1098C28.0232 54.2071 28.2006 47.9225 28.3723 41.8417C28.4479 39.162 28.5261 36.3916 28.582 33.661C28.7091 27.3893 28.8323 21.1178 28.9519 14.8459L29.0649 9.00767C33.3989 24.0573 37.5639 41.6914 37.3218 60.2321H37.3225Z" fill="black"/>
<path d="M3.85531 14.9095C3.64495 13.0023 3.55107 11.0463 3.46013 9.15303C3.4185 8.27612 3.3765 7.39913 3.32318 6.52297C3.30102 6.15351 3.27979 5.78408 3.25934 5.41462C3.19177 4.20527 3.12155 2.9554 2.98935 1.72772C2.93941 1.44701 2.81728 1.18482 2.63554 0.968504C2.45381 0.752189 2.21902 0.589558 1.9554 0.49705C1.49668 0.404311 1.05922 0.900314 0.704955 1.30119C0.498322 1.57743 0.384834 1.91477 0.382179 2.26272C0.345657 3.50049 0.305047 4.73815 0.263412 5.97592C0.149099 9.34147 0.0306032 12.8192 0.0572641 16.2435C0.0767711 17.4614 0.358587 18.66 0.882571 19.7536C1.40655 20.8473 2.15971 21.8091 3.0885 22.5703C4.02525 23.317 5.03201 23.9669 6.09369 24.5109C6.53195 24.7558 6.98424 25.0074 7.44149 25.28C7.3973 26.5798 7.34361 27.8902 7.28956 29.2065C7.16466 32.2523 7.03405 35.4013 7.02456 38.5237C6.98512 49.7123 6.99162 61.0882 6.99819 72.0891C7.0006 76.2433 7.00254 80.3971 7.00352 84.551C7.00352 84.6916 7.00323 84.8329 7.00067 84.9739C6.99666 85.4092 6.99238 85.8587 7.02708 86.3066C7.14906 87.8739 8.01149 88.9105 9.18201 88.9105C9.20502 88.9105 9.22748 88.9105 9.25049 88.9105C10.4699 88.8689 11.2694 87.7912 11.2881 86.1642C11.2979 85.2701 11.2726 84.3647 11.2485 83.4893C11.2273 82.7306 11.2053 81.9468 11.2067 81.1776C11.2269 71.3225 11.2525 61.4682 11.2834 51.6135L11.3052 43.7852C11.3088 42.5108 11.3117 41.2364 11.3134 39.962C11.3189 36.5642 11.3251 33.0517 11.3583 29.5976C11.3693 28.478 11.4423 27.3349 11.5128 26.2291C11.5401 25.7976 11.5675 25.3661 11.5916 24.9342C15.3248 23.5565 17.5514 20.7866 18.7953 15.9922C19.99 11.3867 20.0373 6.81693 19.9277 2.95402L19.9245 2.81451C19.9172 2.40653 19.9082 1.89776 19.6164 1.59187C19.0952 1.04553 18.4844 0.459581 17.8138 0.422186C17.178 0.384791 16.4529 1.17 16.1757 1.75036C15.9944 2.20924 15.9117 2.70273 15.9332 3.19723C15.928 3.38757 15.9236 3.57784 15.9046 3.76109C15.8086 4.71504 15.7251 5.67123 15.6418 6.62779C15.4457 8.87149 15.2432 11.19 14.8732 13.4359C14.6332 14.8891 14.026 16.3292 13.4384 17.7218C13.3226 17.9966 13.207 18.2712 13.0942 18.5445C12.9815 18.8422 12.8102 19.1132 12.5909 19.3402C12.3716 19.5673 12.109 19.7456 11.8195 19.8643C11.818 19.6511 11.8165 19.442 11.8148 19.2365C11.8082 18.4778 11.8018 17.761 11.8255 17.0513C11.8482 16.3759 11.8745 15.7006 11.9008 15.0252C12.0524 11.1552 12.2088 7.15326 11.6215 3.21147C11.5678 2.5914 11.3886 1.98971 11.0955 1.44434C10.9205 1.23225 10.6986 1.06635 10.4478 0.960834C10.197 0.85532 9.92497 0.813266 9.65493 0.838134C9.10528 0.8946 8.73845 1.68022 8.67089 1.83728C8.57867 2.09733 8.54839 2.37612 8.5828 2.65055C8.58791 2.74366 8.5932 2.83762 8.59028 2.92699C8.54572 4.17049 8.50201 5.4141 8.45939 6.65808C8.34325 10.015 8.22317 13.4863 8.07708 16.8982C8.04056 17.7209 7.93563 18.5435 7.82314 19.4111C7.78954 19.6676 7.75645 19.926 7.72432 20.1885C5.4103 19.2466 4.14237 17.5151 3.85531 14.9095Z" fill="black"/>
</g>
<defs>
<clipPath id="clip0_560_378">
<rect width="89" height="89" fill="black"/>
</clipPath>
</defs>
</svg>
