<svg width="89" height="49" viewBox="0 0 89 49" fill="none" xmlns="http://www.w3.org/2000/svg">
<g clip-path="url(#clip0_560_376)">
<path d="M84.8259 44.1081C84.0002 44.1055 83.1746 44.1081 82.3347 44.1081H81.5198L81.4361 43.5884C81.3531 43.0805 81.2805 42.6377 81.2173 42.1898C80.205 35.0284 78.2549 28.8769 75.2554 23.3819C70.366 14.423 62.9525 8.63243 53.2264 6.17073C52.222 5.91476 51.1914 5.68322 50.1945 5.45796C49.8205 5.37313 49.4439 5.28774 49.0655 5.20192C49.0655 5.08747 49.0689 4.97667 49.0704 4.86733C49.0763 4.45376 49.082 4.06263 49.0588 3.67283C48.9769 2.29021 48.6347 1.38311 47.9825 0.818151C47.3304 0.25319 46.3802 0.0333813 44.9842 0.118948C43.3676 0.218777 41.662 0.397954 39.6154 0.682813C38.086 0.895633 37.0244 1.17681 36.4608 1.91803C35.8973 2.65924 35.925 3.77083 36.1617 5.31872C36.1531 5.33883 36.1415 5.36095 36.1296 5.38618C36.1255 5.39496 36.1213 5.40385 36.1168 5.41299L35.7122 5.50404C35.2634 5.60496 34.7981 5.71006 34.3325 5.81757C23.9311 8.22149 16.481 13.9032 12.1899 22.7049C8.54014 30.1913 6.83459 38.2222 5.65927 45.129L4.71598 45.2259C3.67304 45.3327 2.62999 45.4395 1.58854 45.555C1.34138 45.5667 1.09992 45.6307 0.880451 45.7426C0.66098 45.8545 0.468916 46.0114 0.317334 46.2026C0.214121 46.3544 0.147117 46.5274 0.12123 46.708C0.0953426 46.889 0.111086 47.0729 0.167608 47.247C0.283802 47.5487 0.470037 47.8204 0.71137 48.0401C0.952702 48.2599 1.24248 48.4219 1.5586 48.514C2.28044 48.6735 3.02032 48.7426 3.75994 48.7192C3.88484 48.7192 4.00974 48.7192 4.13389 48.7192C11.657 48.6801 18.4527 48.6424 25.4381 48.5729C29.5667 48.5316 33.6952 48.483 37.8235 48.4266C45.0227 48.3352 52.4673 48.2413 59.7889 48.2098C65.3869 48.1864 71.0822 48.2464 76.5889 48.3042C79.3681 48.3334 82.1477 48.3597 84.9276 48.3828C86.9253 48.397 88.7771 48.1572 88.8231 46.331C88.8391 46.086 88.8036 45.8399 88.718 45.6091C88.6327 45.378 88.4992 45.1671 88.3261 44.9886C87.7383 44.3915 86.6257 44.1132 84.8259 44.1081ZM75.7887 43.6923V43.6992L9.92061 44.9542C9.93744 44.8317 9.95348 44.7085 9.96956 44.5856C10.0284 44.0265 10.1298 43.4733 10.2726 42.9288C10.5252 42.0621 10.7751 41.1948 11.0224 40.3267C12.2975 35.8765 13.6158 31.2753 15.5069 26.9333C19.4146 17.9627 26.0416 12.6038 35.768 10.5513C38.1881 10.0347 40.658 9.77183 43.135 9.76748C48.2073 9.78009 53.2111 10.9143 57.7722 13.0849C62.7244 15.3996 66.747 19.1812 69.7225 24.3244C72.7889 29.6204 74.7712 35.729 75.7778 42.9994C75.801 43.2297 75.8048 43.4616 75.7887 43.6923ZM40.0223 4.85804C41.5775 4.52111 43.1661 4.35579 44.7587 4.3649C44.8683 4.5032 44.9681 4.64815 45.0579 4.79913C45.0698 4.81851 45.0826 4.8383 45.0957 4.85804H40.0223Z" fill="black"/>
</g>
<defs>
<clipPath id="clip0_560_376">
<rect width="89" height="49" fill="black"/>
</clipPath>
</defs>
</svg>
